<svg width="759" height="818" viewBox="0 0 759 818" fill="none" xmlns="http://www.w3.org/2000/svg">
<path opacity="0.08" d="M517.741 61.5008L651 293.519L517.741 525.501L251.259 525.501L118 293.519L251.259 61.5008L517.741 61.5008Z" fill="url(#paint0_linear_3713_54352)"/>
<path opacity="0.1" d="M198.132 2.00078L570.868 2.00083L757.271 327.526L570.868 653.001L198.132 653.001L11.7286 327.526L198.132 2.00078Z" stroke="url(#paint1_linear_3713_54352)" stroke-width="3"/>
<path opacity="0.9" d="M133.128 358.001L395.872 358.001L527.271 587.019L395.872 816.001L133.127 816.001L1.7294 587.018L133.128 358.001Z" stroke="url(#paint2_linear_3713_54352)" stroke-opacity="0.1" stroke-width="3"/>
<path opacity="0.9" d="M468.244 146.501L551 290.512L468.244 434.501L302.756 434.501L220 290.512L302.756 146.501L468.244 146.501Z" fill="white"/>
<path opacity="0.9" d="M285.125 118.001L483.875 118.001L583.27 291.014L483.875 464.001L285.125 464.001L185.73 291.014L285.125 118.001Z" stroke="url(#paint3_linear_3713_54352)" stroke-opacity="0.08" stroke-width="3"/>
<path d="M440.625 291.501L552.813 291.501L608.916 388.766L552.813 486.015L440.625 486.015L384.523 388.766L440.625 291.501Z" fill="url(#paint4_linear_3713_54352)" stroke="url(#paint5_linear_3713_54352)" stroke-width="2"/>
<path fill-rule="evenodd" clip-rule="evenodd" d="M544.331 389.389C544.231 389.175 544.186 389.068 544.132 388.965C542.682 386.209 541.236 383.451 539.774 380.702C539.626 380.426 539.645 380.262 539.847 380.026C542.152 377.333 544.445 374.629 546.741 371.927C546.822 371.833 546.894 371.731 546.925 371.563C546.254 371.738 545.582 371.912 544.912 372.089C542.126 372.828 539.34 373.564 536.557 374.312C536.297 374.381 536.179 374.305 536.05 374.09C534.469 371.448 532.878 368.812 531.289 366.174C531.207 366.037 531.119 365.904 530.944 365.789C530.816 366.493 530.686 367.196 530.561 367.9C530.118 370.386 529.677 372.873 529.236 375.359C529.188 375.628 529.121 375.895 529.099 376.165C529.076 376.422 528.945 376.517 528.713 376.59C525.43 377.62 522.15 378.661 518.87 379.701C518.726 379.746 518.586 379.805 518.431 379.946C521.114 381.012 523.797 382.078 526.522 383.161C526.423 383.24 526.358 383.3 526.286 383.348C524.608 384.433 522.928 385.514 521.255 386.605C521.055 386.735 520.895 386.754 520.67 386.653C518.667 385.75 516.656 384.865 514.649 383.969C513.748 383.567 512.938 383.032 512.306 382.26C510.88 380.515 511.161 378.529 513.062 377.316C513.685 376.92 514.391 376.622 515.095 376.392C518.311 375.345 521.538 374.334 524.764 373.321C525.034 373.236 525.16 373.115 525.21 372.822C525.64 370.334 526.086 367.848 526.534 365.363C526.774 364.034 526.901 362.671 527.548 361.453C527.796 360.985 528.094 360.527 528.448 360.134C529.728 358.713 531.516 358.658 532.87 360.012C533.327 360.469 533.72 361.008 534.059 361.561C535.551 363.993 537.018 366.441 538.478 368.893C538.65 369.182 538.806 369.241 539.126 369.155C542.723 368.191 546.324 367.242 549.924 366.29C550.667 366.094 551.418 366.022 552.181 366.165C553.84 366.475 554.566 367.739 554.004 369.342C553.748 370.073 553.308 370.689 552.812 371.272C550.299 374.227 547.791 377.185 545.27 380.132C545.064 380.373 545.059 380.547 545.202 380.816C546.706 383.651 548.197 386.493 549.693 389.331C550.051 390.011 550.324 390.716 550.332 391.496C550.35 393.271 549.053 394.723 547.289 394.982C546.301 395.127 545.383 394.916 544.458 394.63C542.203 393.933 539.943 393.247 537.682 392.567C537.473 392.505 537.393 392.423 537.356 392.197C537.096 390.606 536.812 389.019 536.538 387.43C536.53 387.386 536.543 387.339 536.55 387.242C539.124 387.952 541.675 388.656 544.331 389.389" fill="#E25A1C"/>
<path fill-rule="evenodd" clip-rule="evenodd" d="M539.946 412.56C537.912 412.556 535.878 412.547 533.843 412.555C533.575 412.556 533.423 412.478 533.273 412.249C530.865 408.581 528.446 404.92 526.029 401.258C525.952 401.142 525.87 401.029 525.733 400.833C525.212 404.789 524.704 408.656 524.194 412.533C522.414 412.533 520.669 412.533 518.867 412.533C518.929 412.014 518.984 411.512 519.05 411.013C519.57 407.041 520.092 403.069 520.614 399.098C521.113 395.304 521.61 391.509 522.116 387.715C522.13 387.602 522.206 387.459 522.298 387.399C524.131 386.204 525.97 385.019 527.809 383.833C527.836 383.816 527.873 383.814 527.968 383.787C527.412 388.03 526.86 392.239 526.308 396.449C526.33 396.464 526.351 396.479 526.373 396.494C529.259 393.296 532.145 390.097 535.092 386.83C535.178 387.322 535.251 387.743 535.324 388.164C535.531 389.37 535.729 390.578 535.95 391.781C535.995 392.024 535.93 392.175 535.769 392.344C533.903 394.296 532.044 396.256 530.183 398.214C530.102 398.299 530.024 398.388 529.932 398.489C529.991 398.584 530.042 398.675 530.102 398.76C533.311 403.264 536.52 407.768 539.732 412.271C539.79 412.352 539.874 412.416 539.946 412.489C539.946 412.512 539.946 412.536 539.946 412.56" fill="#3C3A3E"/>
<path fill-rule="evenodd" clip-rule="evenodd" d="M476.807 400.848C476.726 400.433 476.668 399.823 476.483 399.254C475.591 396.501 472.767 394.992 469.844 395.673C466.637 396.419 464.345 398.94 464.014 402.212C463.768 404.632 465.072 406.964 467.495 407.839C469.448 408.545 471.327 408.25 473.073 407.203C475.386 405.815 476.641 403.755 476.807 400.848V400.848ZM462.719 411.079C462.561 412.263 462.41 413.379 462.263 414.496C462.068 415.98 461.874 417.465 461.687 418.95C461.665 419.123 461.612 419.2 461.426 419.199C459.963 419.193 458.5 419.194 457.037 419.192C457.003 419.192 456.97 419.174 456.891 419.151C456.979 418.451 457.065 417.748 457.157 417.045C457.48 414.583 457.802 412.121 458.13 409.659C458.504 406.844 458.801 404.015 459.281 401.219C460.131 396.266 464.332 391.998 469.262 390.935C472.121 390.319 474.856 390.604 477.351 392.213C479.84 393.816 481.267 396.144 481.593 399.072C482.053 403.212 480.529 406.648 477.589 409.491C475.659 411.358 473.348 412.544 470.683 412.944C467.938 413.359 465.357 412.901 463.041 411.282C462.956 411.223 462.865 411.171 462.719 411.079" fill="#3C3A3E"/>
<path fill-rule="evenodd" clip-rule="evenodd" d="M460.332 387.546C458.691 388.768 457.109 389.945 455.52 391.128C455.264 390.724 455.035 390.321 454.767 389.947C454.078 388.984 453.221 388.264 451.976 388.176C450.941 388.104 450.055 388.445 449.35 389.209C448.72 389.891 448.637 390.862 449.226 391.633C449.875 392.482 450.585 393.287 451.31 394.073C452.511 395.376 453.767 396.629 454.961 397.938C456.047 399.13 456.913 400.467 457.18 402.096C457.498 404.032 457.112 405.876 456.196 407.579C454.501 410.728 451.831 412.555 448.307 413.127C446.751 413.38 445.199 413.329 443.68 412.882C441.664 412.289 440.262 410.968 439.36 409.103C439.041 408.443 438.797 407.748 438.508 407.041C440.272 406.097 441.986 405.179 443.725 404.248C443.786 404.393 443.829 404.514 443.885 404.627C444.182 405.221 444.424 405.851 444.792 406.397C445.881 408.017 447.641 408.51 449.426 407.709C449.884 407.504 450.326 407.213 450.702 406.88C451.852 405.859 452.068 404.437 451.216 403.153C450.727 402.415 450.115 401.753 449.52 401.091C448.096 399.51 446.615 397.98 445.224 396.371C444.266 395.262 443.614 393.968 443.408 392.482C443.183 390.86 443.507 389.329 444.352 387.964C446.45 384.569 449.5 382.803 453.534 382.949C455.833 383.033 457.665 384.108 459.086 385.895C459.507 386.423 459.901 386.973 460.332 387.546" fill="#3C3A3E"/>
<path fill-rule="evenodd" clip-rule="evenodd" d="M499.296 405.771C499.029 407.815 498.776 409.759 498.514 411.701C498.501 411.799 498.424 411.933 498.34 411.972C494.369 413.811 489.141 413.554 485.88 409.851C484.128 407.862 483.393 405.501 483.503 402.874C483.757 396.793 488.799 391.485 494.828 390.743C498.35 390.309 501.44 391.261 503.826 393.997C505.452 395.861 506.204 398.087 506.093 400.544C506.019 402.167 505.765 403.782 505.563 405.398C505.277 407.685 504.964 409.97 504.662 412.256C504.651 412.337 504.635 412.418 504.617 412.521C503.045 412.521 501.482 412.521 499.867 412.521C499.93 411.996 499.988 411.482 500.054 410.969C500.398 408.328 500.777 405.692 501.078 403.047C501.266 401.4 501.148 399.765 500.394 398.239C499.593 396.617 498.249 395.76 496.482 395.572C492.824 395.185 489.345 397.726 488.564 401.326C488.049 403.702 488.861 405.979 490.753 407.238C492.598 408.465 494.573 408.469 496.583 407.674C497.602 407.27 498.47 406.632 499.296 405.771" fill="#3C3A3E"/>
<path fill-rule="evenodd" clip-rule="evenodd" d="M519.302 391.204C519.085 392.851 518.871 394.473 518.653 396.129C517.649 396.129 516.664 396.123 515.68 396.131C514.882 396.137 514.154 396.652 513.914 397.397C513.82 397.689 513.786 398 513.745 398.306C513.246 402.087 512.75 405.869 512.254 409.651C512.129 410.605 512.007 411.559 511.882 412.527C510.234 412.527 508.61 412.527 506.938 412.527C507.03 411.8 507.117 411.096 507.209 410.393C507.531 407.942 507.852 405.492 508.178 403.042C508.459 400.922 508.71 398.797 509.041 396.685C509.485 393.853 512.303 391.338 515.16 391.214C516.524 391.155 517.892 391.204 519.302 391.204" fill="#3C3A3E"/>
<path fill-rule="evenodd" clip-rule="evenodd" d="M542.133 412.525V410.359H542.916V410.025H540.938V410.359H541.72V412.525H542.133ZM545.758 410.438V412.525H546.171V410.025H545.539L544.805 411.924L544.059 410.025H543.422V412.525H543.834V410.438H543.847L544.666 412.525H544.927L545.746 410.438H545.758Z" fill="#3C3A3E"/>
<path fill-rule="evenodd" clip-rule="evenodd" d="M466.334 385.232H468.374L468.566 386.501H469.905L468.82 380.55H467.428L464.242 386.501H465.686L466.334 385.232ZM468.187 384.033H466.961L467.898 382.177L468.187 384.033Z" fill="#3C3A3E"/>
<path fill-rule="evenodd" clip-rule="evenodd" d="M475.81 380.55H473.901L472.852 386.501H474.094L474.479 384.322H475.302C476.597 384.322 477.508 383.455 477.508 382.169C477.508 381.145 476.808 380.55 475.81 380.55ZM474.932 381.749H475.659C475.982 381.749 476.202 381.932 476.202 382.291C476.202 382.834 475.852 383.123 475.413 383.123H474.688L474.932 381.749Z" fill="#3C3A3E"/>
<path fill-rule="evenodd" clip-rule="evenodd" d="M481.116 385.232H483.155L483.348 386.501H484.686L483.601 380.55H482.209L479.023 386.501H480.468L481.116 385.232ZM482.96 384.033H481.734L482.671 382.177L482.96 384.033Z" fill="#3C3A3E"/>
<path d="M491.217 386.292C490.797 386.485 490.334 386.599 489.869 386.599C488.294 386.599 487.305 385.417 487.305 383.938C487.305 382.047 488.898 380.454 490.789 380.454C491.261 380.454 491.69 380.568 492.04 380.76L491.865 382.188C491.603 381.898 491.182 381.697 490.657 381.697C489.572 381.697 488.609 382.678 488.609 383.815C488.609 384.682 489.152 385.356 490.01 385.356C490.535 385.356 491.042 385.155 491.384 384.875L491.217 386.292" fill="#3C3A3E"/>
<path d="M498.816 384.105H496.225L495.805 386.503H494.562L495.613 380.552H496.856L496.436 382.906H499.026L499.446 380.552H500.689L499.639 386.503H498.396L498.816 384.105" fill="#3C3A3E"/>
<path d="M503.375 386.503L504.425 380.552H507.725L507.515 381.75H505.457L505.248 382.906H507.138L506.929 384.105H505.038L504.827 385.304H506.885L506.674 386.503H503.375" fill="#3C3A3E"/>
<path d="M217.258 291.501L329.446 291.501L385.549 388.766L329.446 486.015L217.258 486.015L161.156 388.766L217.258 291.501Z" fill="url(#paint6_linear_3713_54352)" stroke="url(#paint7_linear_3713_54352)" stroke-width="2"/>
<path fill-rule="evenodd" clip-rule="evenodd" d="M303.017 400.189L274.686 351.751C274.053 350.668 272.488 350.668 271.854 351.751L247.778 392.915C247.355 393.639 248.119 394.475 248.878 394.119C249.189 393.972 249.549 393.825 249.944 393.678L249.936 393.694C249.936 393.694 250.594 393.439 251.705 393.087C252.93 392.71 254.273 392.354 255.488 392.053C258.888 391.268 263.344 390.629 267.362 391.296C271.06 391.91 273.635 392.901 275.51 393.875C276.37 394.322 277.182 393.2 276.487 392.524C273.798 389.911 269.66 386.756 263.367 385.434C263.091 385.376 262.953 385.065 263.095 384.822L272.574 368.616C272.886 368.084 273.655 368.084 273.966 368.616L292.069 399.567C292.45 400.219 292.13 401.051 291.414 401.291C289.996 401.765 288.301 402.12 286.404 402.12C285.198 402.12 283.984 401.977 282.767 401.695C282.767 401.695 279.259 401.141 274.57 398.344C269.881 395.547 260.841 391.978 250.696 397.755C246.374 400.533 243.494 404.331 241.976 406.716C241.739 407.09 242.149 407.535 242.539 407.327C246.025 405.465 255.423 401.067 263.891 402.648C268.924 403.587 274.676 407.387 280.655 409.566C290.546 413.231 300.244 407.09 300.265 407.077C301.29 406.4 301.892 405.885 301.994 405.795L302.118 405.687C303.699 404.308 304.076 402 303.017 400.189Z" fill="#00ADD4"/>
<path fill-rule="evenodd" clip-rule="evenodd" d="M229.143 415.994C230.77 415.994 232.103 416.471 233.14 417.424C233.7 417.943 234.125 418.56 234.416 419.275C234.705 419.991 234.851 420.795 234.851 421.686C234.851 422.578 234.705 423.384 234.416 424.104C234.125 424.826 233.7 425.445 233.14 425.963C232.621 426.43 232.028 426.782 231.359 427.021C230.69 427.259 229.952 427.378 229.143 427.378H224.897C224.793 427.378 224.705 427.342 224.632 427.27C224.559 427.197 224.523 427.109 224.523 427.005V416.367C224.523 416.263 224.559 416.175 224.632 416.102C224.705 416.03 224.793 415.994 224.897 415.994H229.143ZM244.509 415.993C244.613 415.993 244.701 416.03 244.774 416.102C244.846 416.175 244.883 416.263 244.883 416.367V418.482C244.883 418.586 244.846 418.674 244.774 418.746C244.701 418.819 244.613 418.855 244.509 418.855H239.672C239.569 418.855 239.481 418.892 239.408 418.964C239.335 419.037 239.299 419.125 239.299 419.229V419.882C239.299 419.986 239.335 420.074 239.408 420.146C239.481 420.219 239.569 420.255 239.672 420.255H243.887C243.991 420.255 244.079 420.291 244.152 420.364C244.224 420.437 244.26 420.525 244.26 420.629V422.775C244.26 422.879 244.224 422.967 244.152 423.039C244.079 423.112 243.991 423.148 243.887 423.148H239.672C239.569 423.148 239.481 423.184 239.408 423.257C239.335 423.33 239.299 423.418 239.299 423.521V424.112C239.299 424.216 239.335 424.304 239.408 424.377C239.481 424.449 239.569 424.486 239.672 424.486H244.509C244.613 424.486 244.701 424.522 244.774 424.595C244.846 424.667 244.883 424.755 244.883 424.859V427.005C244.883 427.109 244.846 427.197 244.774 427.27C244.701 427.342 244.613 427.379 244.509 427.379H236.593C236.489 427.379 236.401 427.342 236.328 427.27C236.256 427.197 236.22 427.109 236.22 427.005V416.367C236.22 416.263 236.256 416.175 236.328 416.102C236.401 416.03 236.489 415.993 236.593 415.993H244.509ZM249.549 415.993C249.652 415.993 249.74 416.03 249.813 416.102C249.885 416.175 249.922 416.263 249.922 416.367V424.143C249.922 424.247 249.955 424.336 250.023 424.408C250.09 424.481 250.181 424.517 250.295 424.517H254.977C255.08 424.517 255.168 424.553 255.241 424.626C255.313 424.698 255.35 424.787 255.35 424.89V427.005C255.35 427.109 255.313 427.197 255.241 427.27C255.168 427.342 255.08 427.379 254.977 427.379H247.215C247.101 427.379 247.011 427.342 246.943 427.27C246.876 427.197 246.842 427.109 246.842 427.005V416.367C246.842 416.263 246.876 416.175 246.943 416.102C247.011 416.03 247.101 415.993 247.215 415.993H249.549ZM262.582 415.994C262.696 415.994 262.787 416.03 262.854 416.102C262.922 416.175 262.955 416.263 262.955 416.367V418.482C262.955 418.586 262.922 418.674 262.854 418.746C262.787 418.819 262.696 418.855 262.582 418.855H260.404C260.301 418.855 260.213 418.892 260.14 418.964C260.067 419.037 260.031 419.125 260.031 419.229V427.005C260.031 427.109 259.998 427.197 259.93 427.27C259.863 427.342 259.772 427.378 259.658 427.378H257.325C257.222 427.378 257.133 427.342 257.061 427.27C256.988 427.197 256.952 427.109 256.952 427.005V419.229C256.952 419.125 256.918 419.037 256.851 418.964C256.783 418.892 256.693 418.855 256.579 418.855H254.37C254.266 418.855 254.178 418.819 254.106 418.746C254.033 418.674 253.997 418.586 253.997 418.482V416.367C253.997 416.263 254.033 416.175 254.106 416.102C254.178 416.03 254.266 415.994 254.37 415.994H262.582ZM269.006 416.009C269.109 416.009 269.211 416.043 269.309 416.11C269.407 416.178 269.477 416.258 269.519 416.351L274.061 426.928C274.102 427.021 274.094 427.119 274.037 427.223C273.98 427.327 273.868 427.378 273.703 427.378H271.043C270.929 427.378 270.823 427.345 270.724 427.277C270.626 427.21 270.551 427.13 270.499 427.036L270.079 426.103C270.027 426.01 269.952 425.93 269.853 425.862C269.755 425.795 269.654 425.761 269.55 425.761H266.268C266.154 425.761 266.048 425.795 265.95 425.862C265.851 425.93 265.781 426.01 265.74 426.103L265.304 427.036C265.262 427.13 265.192 427.21 265.094 427.277C264.996 427.345 264.894 427.378 264.791 427.378H262.115C262.064 427.378 262.01 427.368 261.953 427.347C261.895 427.327 261.849 427.296 261.812 427.254C261.776 427.213 261.753 427.161 261.743 427.099C261.733 427.036 261.748 426.964 261.789 426.881L266.299 416.351C266.341 416.258 266.411 416.178 266.51 416.11C266.608 416.043 266.714 416.009 266.828 416.009H269.006ZM283.159 415.993C283.262 415.993 283.351 416.03 283.423 416.102C283.496 416.175 283.532 416.263 283.532 416.367V424.143C283.532 424.247 283.566 424.336 283.633 424.408C283.701 424.481 283.791 424.517 283.906 424.517H288.587C288.69 424.517 288.779 424.553 288.851 424.626C288.924 424.698 288.96 424.787 288.96 424.89V427.005C288.96 427.109 288.924 427.197 288.851 427.27C288.779 427.342 288.69 427.379 288.587 427.379H280.826C280.712 427.379 280.621 427.342 280.554 427.27C280.486 427.197 280.453 427.109 280.453 427.005V416.367C280.453 416.263 280.486 416.175 280.554 416.102C280.621 416.03 280.712 415.993 280.826 415.993H283.159ZM296.457 416.009C296.56 416.009 296.662 416.043 296.76 416.11C296.858 416.178 296.928 416.258 296.97 416.351L301.511 426.928C301.553 427.021 301.545 427.119 301.488 427.223C301.431 427.327 301.319 427.378 301.153 427.378H298.494C298.38 427.378 298.274 427.345 298.175 427.277C298.077 427.21 298.002 427.13 297.95 427.036L297.53 426.103C297.478 426.01 297.402 425.93 297.304 425.862C297.206 425.795 297.104 425.761 297.001 425.761H293.719C293.605 425.761 293.499 425.795 293.4 425.862C293.302 425.93 293.232 426.01 293.19 426.103L292.755 427.036C292.713 427.13 292.643 427.21 292.545 427.277C292.447 427.345 292.345 427.378 292.242 427.378H289.566C289.515 427.378 289.46 427.368 289.403 427.347C289.346 427.327 289.3 427.296 289.263 427.254C289.227 427.213 289.204 427.161 289.193 427.099C289.183 427.036 289.199 426.964 289.24 426.881L293.75 416.351C293.792 416.258 293.862 416.178 293.96 416.11C294.059 416.043 294.165 416.009 294.279 416.009H296.457ZM305.353 415.993C305.456 415.993 305.545 416.03 305.617 416.102C305.69 416.175 305.726 416.263 305.726 416.367V419.944C305.726 420.048 305.747 420.107 305.788 420.123C305.83 420.138 305.882 420.105 305.944 420.022L308.743 416.305C308.806 416.222 308.894 416.152 309.008 416.095C309.122 416.038 309.236 416.009 309.35 416.009H312.32C312.435 416.009 312.507 416.059 312.538 416.157C312.569 416.256 312.554 416.346 312.492 416.429L308.401 421.546C308.339 421.629 308.31 421.725 308.316 421.834C308.321 421.943 308.36 422.034 308.432 422.106C308.784 422.49 309.158 422.889 309.552 423.304C309.946 423.719 310.338 424.136 310.726 424.556C311.115 424.976 311.499 425.391 311.877 425.8C312.255 426.21 312.616 426.591 312.959 426.943C313.03 427.026 313.056 427.119 313.036 427.223C313.015 427.327 312.948 427.378 312.834 427.378H309.614C309.5 427.378 309.384 427.353 309.264 427.301C309.145 427.249 309.054 427.182 308.992 427.099L305.975 423.723C305.902 423.641 305.843 423.61 305.796 423.63C305.749 423.651 305.726 423.713 305.726 423.817V427.005C305.726 427.109 305.69 427.197 305.617 427.27C305.545 427.342 305.456 427.378 305.353 427.378H303.02C302.906 427.378 302.815 427.342 302.748 427.27C302.68 427.197 302.647 427.109 302.647 427.005V416.367C302.647 416.263 302.68 416.175 302.748 416.102C302.815 416.03 302.906 415.993 303.02 415.993H305.353ZM322.305 415.993C322.409 415.993 322.497 416.03 322.57 416.102C322.643 416.175 322.679 416.263 322.679 416.367V418.482C322.679 418.586 322.643 418.674 322.57 418.746C322.497 418.819 322.409 418.855 322.305 418.855H317.469C317.365 418.855 317.276 418.892 317.204 418.964C317.131 419.037 317.095 419.125 317.095 419.229V419.882C317.095 419.986 317.131 420.074 317.204 420.146C317.276 420.219 317.365 420.255 317.469 420.255H321.683C321.787 420.255 321.875 420.291 321.948 420.364C322.02 420.437 322.057 420.525 322.057 420.629V422.775C322.057 422.879 322.02 422.967 321.948 423.039C321.875 423.112 321.787 423.148 321.683 423.148H317.469C317.365 423.148 317.276 423.184 317.204 423.257C317.131 423.33 317.095 423.418 317.095 423.521V424.112C317.095 424.216 317.131 424.304 317.204 424.377C317.276 424.449 317.365 424.486 317.469 424.486H322.305C322.409 424.486 322.497 424.522 322.57 424.595C322.643 424.667 322.679 424.755 322.679 424.859V427.005C322.679 427.109 322.643 427.197 322.57 427.27C322.497 427.342 322.409 427.379 322.305 427.379H314.389C314.285 427.379 314.197 427.342 314.125 427.27C314.052 427.197 314.015 427.109 314.015 427.005V416.367C314.015 416.263 314.052 416.175 314.125 416.102C314.197 416.03 314.285 415.993 314.389 415.993H322.305ZM229.143 418.886H227.976C227.873 418.886 227.784 418.923 227.712 418.995C227.639 419.068 227.603 419.156 227.603 419.26V424.143C227.603 424.247 227.639 424.335 227.712 424.408C227.784 424.481 227.873 424.517 227.976 424.517H229.143C229.433 424.517 229.734 424.481 230.045 424.408C230.356 424.335 230.636 424.198 230.885 423.996C231.133 423.794 231.338 423.508 231.499 423.14C231.66 422.772 231.74 422.293 231.74 421.702C231.74 421.11 231.66 420.631 231.499 420.263C231.338 419.895 231.131 419.61 230.877 419.408C230.623 419.205 230.343 419.068 230.037 418.995C229.731 418.923 229.433 418.886 229.143 418.886ZM267.901 420.753C267.849 420.753 267.803 420.8 267.762 420.893L266.984 422.775C266.942 422.868 266.942 422.948 266.984 423.016C267.025 423.083 267.103 423.117 267.217 423.117H268.601C268.705 423.117 268.78 423.083 268.827 423.016C268.874 422.948 268.871 422.868 268.819 422.775C268.716 422.516 268.591 422.212 268.446 421.865C268.3 421.518 268.166 421.194 268.041 420.893C268 420.8 267.953 420.753 267.901 420.753ZM295.352 420.753C295.3 420.753 295.254 420.8 295.212 420.893L294.435 422.775C294.393 422.868 294.393 422.948 294.435 423.016C294.476 423.083 294.554 423.117 294.668 423.117H296.052C296.156 423.117 296.231 423.083 296.278 423.016C296.324 422.948 296.322 422.868 296.27 422.775C296.166 422.516 296.042 422.212 295.896 421.865C295.751 421.518 295.616 421.194 295.492 420.893C295.451 420.8 295.404 420.753 295.352 420.753Z" fill="#363636"/>
<path d="M328.891 97.5007L441.079 97.5007L497.182 194.765L441.079 292.014L328.891 292.014L272.789 194.765L328.891 97.5007Z" fill="url(#paint8_linear_3713_54352)" stroke="url(#paint9_linear_3713_54352)" stroke-width="2"/>
<path d="M363.677 167.531V168.809L383.308 179.865L400.92 169.995V174.013L383.308 183.977L364.677 173.384L363.677 173.921V181.606L383.308 192.644L400.92 182.792V186.718L383.308 196.663L364.677 186.07L363.677 186.625V187.996L383.308 199.033L402.92 187.996V180.328L402.012 179.773L383.308 190.366L365.769 180.328V176.402L383.308 186.255L402.92 175.199V167.624L402.012 167.087L383.308 177.68L366.677 168.272L383.308 158.864L397.086 166.624L398.271 165.902V164.883L383.308 156.401L363.677 167.531Z" fill="#EF3E2B"/>
<path d="M325.193 229.498C322.637 229.498 320.6 227.405 320.6 224.738C320.6 222.071 322.637 219.979 325.193 219.979C327.749 219.979 329.786 222.071 329.786 224.738C329.786 227.405 327.823 229.498 325.193 229.498ZM332.916 232.109V211.089H329.638V218.96C329.638 219.071 329.582 219.182 329.471 219.238C329.379 219.275 329.267 219.257 329.193 219.182C328.119 217.886 326.415 217.145 324.489 217.145C320.471 217.145 317.341 220.553 317.341 224.849C317.341 226.942 318.082 228.924 319.378 230.35C320.693 231.776 322.545 232.572 324.471 232.554C326.267 232.572 327.99 231.794 329.175 230.461C329.23 230.368 329.342 230.331 329.434 230.387C329.434 230.387 329.453 230.387 329.453 230.405C329.564 230.461 329.619 230.572 329.619 230.683V232.276H332.897L332.916 232.109Z" fill="black"/>
<path d="M342.492 229.497C339.936 229.497 337.899 227.405 337.899 224.738C337.899 222.071 339.936 219.978 342.492 219.978C345.048 219.978 347.085 222.071 347.085 224.738C347.085 227.405 345.103 229.497 342.492 229.497ZM350.141 232.109V217.423H346.918V218.904C346.918 219.015 346.863 219.126 346.751 219.182C346.659 219.219 346.548 219.2 346.474 219.126C345.4 217.83 343.696 217.145 341.77 217.145C337.751 217.145 334.621 220.552 334.621 224.849C334.621 229.145 337.732 232.553 341.77 232.553C343.585 232.572 345.307 231.775 346.474 230.386C346.529 230.294 346.659 230.257 346.751 230.331C346.751 230.331 346.751 230.331 346.77 230.331C346.881 230.386 346.937 230.497 346.937 230.609V232.201H350.159L350.141 232.109Z" fill="black"/>
<path d="M369.922 229.497C367.366 229.497 365.329 227.405 365.329 224.738C365.329 222.071 367.366 219.978 369.922 219.978C372.477 219.978 374.515 222.071 374.515 224.738C374.515 227.405 372.533 229.497 369.922 229.497ZM377.589 232.109V217.423H374.422V218.904C374.422 219.015 374.366 219.126 374.255 219.182C374.163 219.219 374.052 219.2 373.978 219.126C372.903 217.83 371.2 217.145 369.274 217.145C365.255 217.145 362.125 220.552 362.125 224.849C362.125 229.145 365.236 232.553 369.274 232.553C371.088 232.572 372.811 231.775 373.978 230.386C374.033 230.294 374.163 230.257 374.255 230.331C374.255 230.331 374.255 230.331 374.274 230.331C374.385 230.386 374.441 230.497 374.441 230.609V232.201H377.607L377.589 232.109Z" fill="black"/>
<path d="M383.143 224.794C383.143 222.127 385.18 220.035 387.736 220.035C390.291 220.035 392.328 222.127 392.328 224.794C392.328 227.461 390.291 229.554 387.736 229.554C385.161 229.498 383.106 227.368 383.143 224.794ZM383.476 230.35H383.587C383.68 230.369 383.754 230.406 383.809 230.461C384.883 231.758 386.587 232.498 388.513 232.498C392.532 232.498 395.662 229.091 395.662 224.794C395.662 222.702 394.921 220.72 393.625 219.294C392.31 217.868 390.458 217.072 388.532 217.09C386.735 217.072 385.013 217.831 383.828 219.183C383.772 219.294 383.661 219.294 383.55 219.238C383.439 219.183 383.383 219.072 383.383 218.961V211.034H380.087V232.054H383.328V230.572C383.328 230.48 383.383 230.387 383.476 230.35Z" fill="black"/>
<path d="M404.907 220.441C405.166 220.422 405.444 220.441 405.703 220.496V217.144C405.592 217.144 405.37 217.089 405.129 217.089C403.481 217.052 401.944 217.922 401.11 219.348C401.073 219.459 400.943 219.515 400.851 219.478H400.832C400.721 219.422 400.629 219.33 400.61 219.2V217.385H397.388V232.016H400.61V225.663C400.647 222.422 402.295 220.441 404.907 220.441Z" fill="black"/>
<path d="M411.035 217.423H407.738V232.054H411.035V217.423Z" fill="black"/>
<path d="M409.313 211.089C408.22 211.089 407.331 211.978 407.331 213.071C407.331 214.164 408.22 215.053 409.313 215.053C410.405 215.053 411.294 214.164 411.294 213.071C411.294 211.978 410.405 211.089 409.313 211.089Z" fill="black"/>
<path d="M420.596 217.089C416.114 217.089 412.836 220.311 412.836 224.793C412.836 226.941 413.577 228.923 414.984 230.293C416.41 231.719 418.318 232.441 420.54 232.441C422.355 232.441 423.763 232.108 426.429 230.126L424.614 228.2C423.318 229.052 422.059 229.497 420.873 229.497C418.151 229.497 416.114 227.46 416.114 224.793C416.114 222.126 418.151 220.089 420.873 220.089C422.17 220.089 423.374 220.478 424.559 221.385L426.596 219.459C424.225 217.292 422.077 217.07 420.596 217.089Z" fill="black"/>
<path d="M432.17 225.646C432.207 225.609 432.281 225.572 432.337 225.591C432.43 225.609 432.504 225.646 432.559 225.702L437.708 232.109H441.689L435.004 223.998C434.893 223.887 434.948 223.72 435.004 223.609L441.189 217.423H437.208L431.874 222.757C431.8 222.831 431.689 222.85 431.596 222.813C431.485 222.757 431.43 222.646 431.43 222.535V211.034H428.263V232.054H431.504V226.387C431.522 226.294 431.559 226.22 431.615 226.165L432.17 225.646Z" fill="black"/>
<path d="M447.022 232.443C449.689 232.443 452.355 230.85 452.355 227.794C452.355 225.813 451.115 224.387 448.503 223.535L446.744 222.96C445.559 222.553 444.985 221.997 444.985 221.201C444.985 220.294 445.781 219.72 446.911 219.72C447.985 219.72 448.948 220.405 449.577 221.646L452.189 220.22C451.226 218.238 449.244 217.053 446.966 217.053C444.077 217.053 441.984 218.923 441.984 221.479C441.984 223.516 443.17 224.887 445.67 225.683L447.485 226.257C448.726 226.646 449.3 227.164 449.3 228.016C449.3 229.257 448.17 229.72 447.151 229.72C445.855 229.72 444.651 228.868 444.096 227.516L441.484 228.868C442.262 231.072 444.41 232.443 447.022 232.443Z" fill="black"/>
<path d="M359.156 232.276C359.971 232.257 360.786 232.202 361.601 232.109V229.331C361.064 229.405 360.508 229.442 359.952 229.442C358.656 229.442 357.637 229.22 357.637 226.386V220.386C357.619 220.238 357.749 220.108 357.878 220.108C357.897 220.108 357.897 220.108 357.915 220.108H361.082V217.441H357.915C357.767 217.46 357.637 217.33 357.637 217.201C357.637 217.182 357.637 217.182 357.637 217.164V212.978H354.397V217.238C354.415 217.386 354.285 217.516 354.156 217.516C354.137 217.516 354.137 217.516 354.119 217.516H351.859V220.182H354.119C354.267 220.182 354.397 220.294 354.397 220.442C354.397 220.46 354.397 220.46 354.397 220.479V227.275C354.452 232.276 357.86 232.276 359.156 232.276Z" fill="black"/>
<defs>
<linearGradient id="paint0_linear_3713_54352" x1="384.5" y1="610.337" x2="384.5" y2="61.5008" gradientUnits="userSpaceOnUse">
<stop stop-color="white" stop-opacity="0"/>
<stop offset="1" stop-color="#828EF1"/>
</linearGradient>
<linearGradient id="paint1_linear_3713_54352" x1="-39.036" y1="24.064" x2="798.63" y2="781.83" gradientUnits="userSpaceOnUse">
<stop stop-color="#828EF1"/>
<stop offset="1" stop-color="#403FC2" stop-opacity="0"/>
</linearGradient>
<linearGradient id="paint2_linear_3713_54352" x1="-50.2639" y1="290.815" x2="139.357" y2="818.002" gradientUnits="userSpaceOnUse">
<stop stop-color="#52C7F0"/>
<stop offset="1" stop-color="#00ADD4"/>
</linearGradient>
<linearGradient id="paint3_linear_3713_54352" x1="145.898" y1="66.7735" x2="289.307" y2="465.999" gradientUnits="userSpaceOnUse">
<stop stop-color="#F97066"/>
<stop offset="1" stop-color="#EF3E2B"/>
</linearGradient>
<linearGradient id="paint4_linear_3713_54352" x1="413.094" y1="338.569" x2="582.594" y2="433.569" gradientUnits="userSpaceOnUse">
<stop stop-color="white"/>
<stop offset="1" stop-color="white" stop-opacity="0"/>
</linearGradient>
<linearGradient id="paint5_linear_3713_54352" x1="555.094" y1="487.333" x2="441.594" y2="290.333" gradientUnits="userSpaceOnUse">
<stop stop-color="#FD853A"/>
<stop offset="1" stop-color="#E25A1C"/>
</linearGradient>
<linearGradient id="paint6_linear_3713_54352" x1="168" y1="414.001" x2="245" y2="399.001" gradientUnits="userSpaceOnUse">
<stop stop-color="white" stop-opacity="0"/>
<stop offset="1" stop-color="white"/>
</linearGradient>
<linearGradient id="paint7_linear_3713_54352" x1="363.094" y1="350.833" x2="153.094" y2="560.833" gradientUnits="userSpaceOnUse">
<stop stop-color="#00ADD4"/>
<stop offset="1" stop-color="#7CD4FD"/>
</linearGradient>
<linearGradient id="paint8_linear_3713_54352" x1="384.985" y1="293.014" x2="384.985" y2="96.5007" gradientUnits="userSpaceOnUse">
<stop stop-color="white" stop-opacity="0"/>
<stop offset="1" stop-color="white"/>
</linearGradient>
<linearGradient id="paint9_linear_3713_54352" x1="250.094" y1="68.5005" x2="330.594" y2="293.501" gradientUnits="userSpaceOnUse">
<stop stop-color="#F97066"/>
<stop offset="1" stop-color="#EF3E2B"/>
</linearGradient>
</defs>
</svg>
